<svg xmlns="http://www.w3.org/2000/svg" xmlns:xlink="http://www.w3.org/1999/xlink" width="396" zoomAndPan="magnify" viewBox="0 0 297 296.999993" height="396" preserveAspectRatio="xMidYMid meet" version="1.2"><g id="d03aa766e2"><path style=" stroke:none;fill-rule:nonzero;fill:#db912b;fill-opacity:1;" d="M 148.316406 0 C 150.730469 0 153.140625 0.0585938 155.554688 0.175781 C 157.964844 0.292969 160.371094 0.472656 162.773438 0.707031 C 165.175781 0.941406 167.574219 1.234375 169.960938 1.589844 C 172.351562 1.941406 174.730469 2.351562 177.097656 2.820312 C 179.464844 3.289062 181.820312 3.8125 184.164062 4.398438 C 186.507812 4.980469 188.832031 5.621094 191.144531 6.320312 C 193.457031 7.015625 195.75 7.769531 198.023438 8.578125 C 200.300781 9.386719 202.550781 10.253906 204.785156 11.171875 C 207.015625 12.089844 209.226562 13.0625 211.410156 14.089844 C 213.597656 15.117188 215.753906 16.199219 217.886719 17.332031 C 220.019531 18.460938 222.121094 19.648438 224.195312 20.882812 C 226.269531 22.117188 228.3125 23.402344 230.324219 24.738281 C 232.335938 26.074219 234.316406 27.457031 236.257812 28.886719 C 238.203125 30.320312 240.113281 31.796875 241.984375 33.320312 C 243.855469 34.847656 245.6875 36.417969 247.484375 38.03125 C 249.28125 39.644531 251.035156 41.300781 252.75 43.003906 C 254.464844 44.703125 256.136719 46.441406 257.765625 48.222656 C 259.394531 50.007812 260.976562 51.828125 262.519531 53.6875 C 264.058594 55.542969 265.554688 57.441406 267 59.371094 C 268.449219 61.304688 269.847656 63.269531 271.199219 65.269531 C 272.550781 67.269531 273.855469 69.304688 275.105469 71.367188 C 276.359375 73.429688 277.5625 75.523438 278.710938 77.648438 C 279.863281 79.769531 280.960938 81.917969 282.003906 84.097656 C 283.050781 86.273438 284.042969 88.472656 284.980469 90.695312 C 285.917969 92.921875 286.800781 95.167969 287.628906 97.4375 C 288.457031 99.703125 289.230469 101.992188 289.945312 104.296875 C 290.664062 106.601562 291.324219 108.921875 291.925781 111.261719 C 292.527344 113.597656 293.074219 115.949219 293.5625 118.3125 C 294.050781 120.679688 294.480469 123.054688 294.855469 125.4375 C 295.226562 127.824219 295.539062 130.21875 295.796875 132.617188 C 296.050781 135.019531 296.25 137.425781 296.386719 139.835938 C 296.523438 142.246094 296.605469 144.65625 296.625 147.070312 C 296.644531 149.488281 296.605469 151.898438 296.507812 154.3125 C 296.410156 156.722656 296.253906 159.132812 296.039062 161.539062 C 295.824219 163.941406 295.550781 166.339844 295.21875 168.730469 C 294.886719 171.121094 294.496094 173.503906 294.046875 175.878906 C 293.597656 178.25 293.089844 180.609375 292.527344 182.957031 C 291.960938 185.304688 291.34375 187.636719 290.664062 189.953125 C 289.984375 192.269531 289.253906 194.570312 288.460938 196.851562 C 287.671875 199.132812 286.828125 201.394531 285.925781 203.632812 C 285.027344 205.875 284.070312 208.089844 283.0625 210.285156 C 282.054688 212.476562 280.992188 214.644531 279.878906 216.789062 C 278.761719 218.929688 277.597656 221.042969 276.378906 223.125 C 275.160156 225.210938 273.894531 227.265625 272.574219 229.289062 C 271.257812 231.3125 269.890625 233.300781 268.472656 235.257812 C 267.058594 237.210938 265.597656 239.132812 264.089844 241.015625 C 262.578125 242.902344 261.023438 244.75 259.425781 246.558594 C 257.828125 248.367188 256.183594 250.132812 254.5 251.863281 C 252.8125 253.589844 251.085938 255.277344 249.316406 256.921875 C 247.550781 258.566406 245.742188 260.164062 243.898438 261.722656 C 242.050781 263.277344 240.167969 264.789062 238.25 266.25 C 236.328125 267.714844 234.375 269.132812 232.386719 270.5 C 230.394531 271.867188 228.375 273.1875 226.320312 274.457031 C 224.269531 275.726562 222.183594 276.945312 220.070312 278.113281 C 217.957031 279.28125 215.820312 280.398438 213.652344 281.460938 C 211.484375 282.527344 209.292969 283.535156 207.074219 284.492188 C 204.859375 285.449219 202.621094 286.351562 200.359375 287.199219 C 198.097656 288.046875 195.816406 288.835938 193.519531 289.574219 C 191.21875 290.308594 188.902344 290.988281 186.570312 291.609375 C 184.238281 292.234375 181.890625 292.796875 179.53125 293.308594 C 177.171875 293.816406 174.800781 294.265625 172.417969 294.65625 C 170.035156 295.050781 167.644531 295.382812 165.246094 295.660156 C 162.847656 295.933594 160.441406 296.152344 158.035156 296.308594 C 155.625 296.46875 153.214844 296.566406 150.800781 296.609375 C 148.386719 296.648438 145.972656 296.628906 143.558594 296.554688 C 141.144531 296.476562 138.734375 296.339844 136.328125 296.144531 C 133.921875 295.949219 131.523438 295.695312 129.128906 295.382812 C 126.734375 295.070312 124.351562 294.699219 121.972656 294.269531 C 119.597656 293.84375 117.234375 293.355469 114.882812 292.8125 C 112.53125 292.269531 110.191406 291.667969 107.871094 291.007812 C 105.546875 290.347656 103.242188 289.636719 100.953125 288.863281 C 98.664062 288.09375 96.398438 287.265625 94.148438 286.386719 C 91.902344 285.503906 89.675781 284.566406 87.476562 283.578125 C 85.273438 282.585938 83.097656 281.542969 80.945312 280.445312 C 78.796875 279.347656 76.671875 278.199219 74.578125 277 C 72.484375 275.800781 70.417969 274.550781 68.386719 273.25 C 66.351562 271.949219 64.351562 270.597656 62.382812 269.199219 C 60.414062 267.800781 58.484375 266.355469 56.585938 264.859375 C 54.6875 263.367188 52.828125 261.828125 51.007812 260.246094 C 49.183594 258.660156 47.402344 257.035156 45.660156 255.363281 C 43.917969 253.691406 42.214844 251.980469 40.558594 250.222656 C 38.898438 248.46875 37.285156 246.675781 35.710938 244.84375 C 34.140625 243.011719 32.613281 241.140625 31.136719 239.234375 C 29.65625 237.324219 28.222656 235.382812 26.835938 233.40625 C 25.453125 231.429688 24.117188 229.417969 22.828125 227.375 C 21.542969 225.332031 20.304688 223.257812 19.121094 221.15625 C 17.933594 219.054688 16.800781 216.921875 15.71875 214.765625 C 14.636719 212.605469 13.609375 210.421875 12.632812 208.214844 C 11.660156 206.003906 10.738281 203.773438 9.871094 201.519531 C 9.003906 199.265625 8.195312 196.992188 7.441406 194.699219 C 6.683594 192.40625 5.988281 190.097656 5.34375 187.769531 C 4.703125 185.441406 4.117188 183.101562 3.589844 180.746094 C 3.0625 178.386719 2.589844 176.019531 2.179688 173.640625 C 1.765625 171.261719 1.414062 168.875 1.117188 166.480469 C 0.820312 164.082031 0.582031 161.679688 0.40625 159.273438 C 0.226562 156.867188 0.109375 154.457031 0.046875 152.042969 L 74.179688 150.179688 C 74.210938 151.386719 74.269531 152.589844 74.359375 153.792969 C 74.449219 154.996094 74.566406 156.199219 74.714844 157.398438 C 74.863281 158.59375 75.039062 159.789062 75.246094 160.976562 C 75.453125 162.167969 75.6875 163.351562 75.953125 164.53125 C 76.214844 165.707031 76.507812 166.878906 76.828125 168.042969 C 77.152344 169.207031 77.5 170.359375 77.878906 171.507812 C 78.253906 172.652344 78.660156 173.789062 79.09375 174.917969 C 79.527344 176.042969 79.988281 177.160156 80.472656 178.265625 C 80.960938 179.367188 81.476562 180.460938 82.015625 181.539062 C 82.558594 182.617188 83.125 183.683594 83.71875 184.734375 C 84.308594 185.789062 84.929688 186.824219 85.570312 187.84375 C 86.214844 188.867188 86.882812 189.871094 87.574219 190.859375 C 88.269531 191.847656 88.984375 192.820312 89.726562 193.773438 C 90.464844 194.726562 91.226562 195.664062 92.011719 196.578125 C 92.800781 197.496094 93.605469 198.390625 94.4375 199.269531 C 95.265625 200.148438 96.117188 201.003906 96.988281 201.839844 C 97.859375 202.675781 98.75 203.488281 99.660156 204.28125 C 100.570312 205.070312 101.5 205.839844 102.449219 206.585938 C 103.398438 207.335938 104.363281 208.058594 105.347656 208.757812 C 106.332031 209.457031 107.332031 210.132812 108.351562 210.78125 C 109.367188 211.433594 110.398438 212.058594 111.445312 212.65625 C 112.492188 213.257812 113.554688 213.832031 114.628906 214.378906 C 115.707031 214.929688 116.792969 215.449219 117.894531 215.945312 C 118.996094 216.441406 120.109375 216.910156 121.230469 217.351562 C 122.355469 217.789062 123.488281 218.203125 124.632812 218.589844 C 125.777344 218.976562 126.929688 219.332031 128.09375 219.660156 C 129.253906 219.992188 130.421875 220.292969 131.597656 220.5625 C 132.773438 220.835938 133.957031 221.078125 135.144531 221.292969 C 136.332031 221.507812 137.523438 221.691406 138.722656 221.847656 C 139.917969 222.003906 141.117188 222.132812 142.320312 222.230469 C 143.523438 222.328125 144.730469 222.394531 145.9375 222.433594 C 147.144531 222.472656 148.351562 222.480469 149.558594 222.460938 C 150.765625 222.441406 151.96875 222.390625 153.175781 222.3125 C 154.378906 222.234375 155.582031 222.125 156.78125 221.988281 C 157.980469 221.847656 159.175781 221.683594 160.367188 221.484375 C 161.558594 221.289062 162.742188 221.066406 163.921875 220.8125 C 165.101562 220.558594 166.277344 220.273438 167.441406 219.960938 C 168.609375 219.652344 169.765625 219.3125 170.917969 218.945312 C 172.066406 218.574219 173.207031 218.179688 174.335938 217.757812 C 175.46875 217.332031 176.585938 216.882812 177.695312 216.402344 C 178.804688 215.925781 179.898438 215.421875 180.984375 214.886719 C 182.066406 214.355469 183.136719 213.796875 184.191406 213.214844 C 185.25 212.628906 186.292969 212.019531 187.316406 211.386719 C 188.34375 210.75 189.355469 210.09375 190.351562 209.40625 C 191.34375 208.722656 192.320312 208.015625 193.28125 207.28125 C 194.242188 206.550781 195.183594 205.796875 196.105469 205.019531 C 197.027344 204.242188 197.933594 203.441406 198.816406 202.617188 C 199.699219 201.796875 200.5625 200.953125 201.40625 200.089844 C 202.25 199.222656 203.070312 198.339844 203.871094 197.4375 C 204.667969 196.53125 205.445312 195.609375 206.203125 194.664062 C 206.957031 193.722656 207.6875 192.761719 208.394531 191.785156 C 209.101562 190.808594 209.785156 189.8125 210.445312 188.800781 C 211.105469 187.789062 211.738281 186.761719 212.347656 185.71875 C 212.957031 184.679688 213.539062 183.621094 214.097656 182.550781 C 214.652344 181.480469 215.183594 180.394531 215.6875 179.300781 C 216.191406 178.203125 216.671875 177.09375 217.121094 175.972656 C 217.570312 174.855469 217.992188 173.722656 218.386719 172.582031 C 218.785156 171.441406 219.152344 170.292969 219.488281 169.132812 C 219.828125 167.976562 220.140625 166.808594 220.421875 165.636719 C 220.703125 164.460938 220.957031 163.28125 221.179688 162.097656 C 221.40625 160.910156 221.601562 159.71875 221.765625 158.523438 C 221.933594 157.328125 222.070312 156.128906 222.175781 154.925781 C 222.285156 153.722656 222.363281 152.519531 222.410156 151.3125 C 222.460938 150.105469 222.480469 148.902344 222.46875 147.691406 C 222.460938 146.484375 222.417969 145.28125 222.351562 144.074219 C 222.28125 142.871094 222.183594 141.667969 222.054688 140.464844 C 221.925781 139.265625 221.769531 138.070312 221.585938 136.875 C 221.398438 135.683594 221.183594 134.496094 220.9375 133.316406 C 220.695312 132.132812 220.421875 130.957031 220.121094 129.789062 C 219.820312 128.617188 219.488281 127.457031 219.128906 126.304688 C 218.773438 125.152344 218.386719 124.007812 217.972656 122.875 C 217.558594 121.742188 217.117188 120.617188 216.648438 119.507812 C 216.179688 118.394531 215.683594 117.292969 215.160156 116.207031 C 214.636719 115.117188 214.089844 114.042969 213.511719 112.980469 C 212.9375 111.917969 212.335938 110.871094 211.710938 109.839844 C 211.085938 108.808594 210.433594 107.792969 209.757812 106.792969 C 209.082031 105.792969 208.382812 104.808594 207.65625 103.84375 C 206.933594 102.878906 206.1875 101.929688 205.417969 101 C 204.644531 100.070312 203.855469 99.160156 203.039062 98.269531 C 202.226562 97.378906 201.390625 96.507812 200.53125 95.660156 C 199.675781 94.808594 198.796875 93.980469 197.898438 93.171875 C 197 92.367188 196.085938 91.582031 195.148438 90.816406 C 194.214844 90.054688 193.257812 89.316406 192.285156 88.601562 C 191.316406 87.886719 190.324219 87.195312 189.320312 86.527344 C 188.316406 85.859375 187.292969 85.214844 186.253906 84.597656 C 185.21875 83.980469 184.167969 83.390625 183.101562 82.824219 C 182.035156 82.257812 180.957031 81.714844 179.863281 81.203125 C 178.769531 80.6875 177.667969 80.203125 176.550781 79.742188 C 175.433594 79.285156 174.308594 78.851562 173.167969 78.445312 C 172.03125 78.042969 170.886719 77.664062 169.730469 77.316406 C 168.574219 76.96875 167.410156 76.648438 166.238281 76.355469 C 165.066406 76.0625 163.890625 75.800781 162.707031 75.566406 C 161.523438 75.332031 160.332031 75.128906 159.136719 74.953125 C 157.945312 74.773438 156.746094 74.628906 155.542969 74.511719 C 154.34375 74.394531 153.140625 74.304688 151.933594 74.246094 C 150.726562 74.1875 149.523438 74.15625 148.316406 74.15625 Z M 148.316406 0 "/><path style=" stroke:none;fill-rule:nonzero;fill:#898989;fill-opacity:1;" d="M 0.046875 152.042969 C -0.015625 149.578125 -0.015625 147.113281 0.046875 144.644531 C 0.105469 142.179688 0.230469 139.71875 0.414062 137.257812 C 0.597656 134.800781 0.839844 132.347656 1.148438 129.902344 C 1.453125 127.453125 1.820312 125.015625 2.25 122.585938 C 2.675781 120.160156 3.164062 117.742188 3.710938 115.339844 C 4.261719 112.933594 4.867188 110.542969 5.535156 108.171875 C 6.203125 105.796875 6.929688 103.441406 7.714844 101.101562 C 8.5 98.765625 9.34375 96.449219 10.242188 94.152344 C 11.144531 91.859375 12.101562 89.585938 13.113281 87.339844 C 14.128906 85.089844 15.199219 82.867188 16.320312 80.675781 C 17.445312 78.480469 18.625 76.3125 19.859375 74.179688 C 21.089844 72.042969 22.375 69.9375 23.714844 67.867188 C 25.050781 65.796875 26.4375 63.757812 27.878906 61.757812 C 29.316406 59.753906 30.804688 57.789062 32.34375 55.859375 C 33.878906 53.933594 35.464844 52.042969 37.097656 50.195312 C 38.726562 48.34375 40.402344 46.539062 42.125 44.773438 C 43.847656 43.007812 45.613281 41.285156 47.417969 39.605469 C 49.226562 37.929688 51.074219 36.296875 52.964844 34.710938 C 54.851562 33.128906 56.78125 31.589844 58.746094 30.101562 C 60.710938 28.613281 62.710938 27.171875 64.75 25.78125 C 66.785156 24.394531 68.855469 23.054688 70.960938 21.769531 C 73.066406 20.484375 75.199219 19.25 77.367188 18.070312 C 79.53125 16.890625 81.722656 15.765625 83.945312 14.695312 C 86.167969 13.625 88.414062 12.613281 90.6875 11.652344 C 92.960938 10.695312 95.253906 9.792969 97.570312 8.949219 C 99.886719 8.105469 102.226562 7.320312 104.582031 6.59375 C 106.9375 5.867188 109.3125 5.199219 111.699219 4.589844 C 114.089844 3.980469 116.492188 3.433594 118.910156 2.945312 C 121.328125 2.457031 123.753906 2.027344 126.195312 1.660156 C 128.632812 1.292969 131.078125 0.984375 133.53125 0.738281 C 135.984375 0.492188 138.445312 0.308594 140.90625 0.183594 C 143.371094 0.0625 145.832031 0 148.300781 0 L 148.308594 74.15625 C 147.074219 74.15625 145.84375 74.1875 144.609375 74.25 C 143.378906 74.3125 142.148438 74.402344 140.921875 74.527344 C 139.695312 74.648438 138.472656 74.804688 137.253906 74.988281 C 136.035156 75.171875 134.820312 75.386719 133.613281 75.628906 C 132.402344 75.875 131.203125 76.148438 130.007812 76.453125 C 128.8125 76.757812 127.625 77.089844 126.449219 77.453125 C 125.269531 77.816406 124.101562 78.210938 122.941406 78.632812 C 121.785156 79.054688 120.636719 79.503906 119.5 79.984375 C 118.363281 80.464844 117.242188 80.96875 116.128906 81.503906 C 115.019531 82.039062 113.921875 82.601562 112.839844 83.191406 C 111.757812 83.78125 110.691406 84.398438 109.636719 85.042969 C 108.585938 85.683594 107.550781 86.355469 106.53125 87.046875 C 105.511719 87.742188 104.511719 88.464844 103.53125 89.207031 C 102.546875 89.953125 101.582031 90.722656 100.640625 91.511719 C 99.695312 92.304688 98.769531 93.121094 97.867188 93.960938 C 96.964844 94.800781 96.082031 95.660156 95.21875 96.542969 C 94.359375 97.425781 93.519531 98.328125 92.707031 99.253906 C 91.890625 100.179688 91.097656 101.125 90.328125 102.085938 C 89.558594 103.050781 88.816406 104.035156 88.097656 105.035156 C 87.378906 106.035156 86.683594 107.054688 86.015625 108.089844 C 85.34375 109.125 84.703125 110.179688 84.085938 111.246094 C 83.46875 112.316406 82.878906 113.398438 82.320312 114.496094 C 81.757812 115.589844 81.222656 116.703125 80.714844 117.828125 C 80.207031 118.949219 79.730469 120.085938 79.277344 121.234375 C 78.828125 122.382812 78.40625 123.539062 78.015625 124.710938 C 77.621094 125.878906 77.257812 127.054688 76.925781 128.242188 C 76.589844 129.429688 76.289062 130.625 76.011719 131.828125 C 75.738281 133.027344 75.496094 134.238281 75.28125 135.449219 C 75.066406 136.664062 74.882812 137.882812 74.730469 139.109375 C 74.578125 140.332031 74.457031 141.558594 74.363281 142.789062 C 74.273438 144.015625 74.210938 145.246094 74.179688 146.480469 C 74.148438 147.714844 74.148438 148.945312 74.179688 150.179688 Z M 0.046875 152.042969 "/></g></svg>