<svg width="41" height="40" viewBox="0 0 41 40" fill="none" xmlns="http://www.w3.org/2000/svg">
<g clip-path="url(#clip0_1_585)">
<path d="M40.6248 19.8005C40.6248 30.7362 31.5306 39.601 20.3119 39.601C9.09418 39.6 0 30.7352 0 19.8005C0 8.86478 9.09418 0 20.3129 0C31.5316 0 40.6258 8.86478 40.6258 19.8005H40.6248Z" fill="#BA771B"/>
<path d="M25.8236 9.41406H14.8012C11.961 9.41406 9.65753 11.6594 9.65753 14.428V25.1723C9.65753 27.9409 11.961 30.1863 14.8012 30.1863H25.8236C28.6638 30.1863 30.9673 27.9409 30.9673 25.1723V14.428C30.9673 11.6594 28.6638 9.41406 25.8236 9.41406ZM29.13 24.8146C29.13 26.7918 27.484 28.3964 25.4555 28.3964H15.1682C13.1398 28.3964 11.4937 26.7918 11.4937 24.8146V14.7867C11.4937 12.8095 13.1398 11.205 15.1682 11.205H25.4555C27.484 11.205 29.13 12.8095 29.13 14.7867V24.8146Z" fill="white"/>
<path d="M20.3231 14.4277C17.2815 14.4277 14.8124 16.8345 14.8124 19.7994C14.8124 22.7643 17.2815 25.1711 20.3231 25.1711C23.3647 25.1711 25.8338 22.7643 25.8338 19.7994C25.8338 16.8345 23.3647 14.4277 20.3231 14.4277ZM20.3231 23.3812C18.2988 23.3812 16.6486 21.7727 16.6486 19.7994C16.6486 17.8261 18.2988 16.2176 20.3231 16.2176C22.3474 16.2176 23.9976 17.8261 23.9976 19.7994C23.9976 21.7727 22.3474 23.3812 20.3231 23.3812Z" fill="white"/>
<path d="M26.2019 15.1448C25.5946 15.1448 25.0997 14.6624 25.0997 14.0704C25.0997 13.4784 25.5946 12.9961 26.2019 12.9961C26.8092 12.9961 27.304 13.4784 27.304 14.0704C27.304 14.6624 26.8092 15.1448 26.2019 15.1448Z" fill="white"/>
</g>
<defs>
<clipPath id="clip0_1_585">
<rect width="40.6248" height="39.6" fill="white"/>
</clipPath>
</defs>
</svg>
