<svg width="40" height="40" viewBox="0 0 40 40" fill="none" xmlns="http://www.w3.org/2000/svg">
<g clip-path="url(#clip0_1_598)">
<path d="M39.9474 19.9742C39.9474 31.0058 31.0048 39.9484 19.9732 39.9484C8.94254 39.9474 0 31.0048 0 19.9742C0 8.94254 8.94254 0 19.9742 0C31.0058 0 39.9484 8.94254 39.9484 19.9742H39.9474Z" fill="#BA771B"/>
<path d="M12.8996 14.6336C14.3204 14.6336 15.4722 13.4818 15.4722 12.061C15.4722 10.6401 14.3204 9.48828 12.8996 9.48828C11.4787 9.48828 10.3269 10.6401 10.3269 12.061C10.3269 13.4818 11.4787 14.6336 12.8996 14.6336Z" fill="white"/>
<path d="M14.8509 16.3496H10.9472C10.8411 16.3496 10.7552 16.4356 10.7552 16.5416V29.02C10.7552 29.126 10.8411 29.212 10.9472 29.212H14.8509C14.957 29.212 15.043 29.126 15.043 29.02V16.5416C15.043 16.4356 14.957 16.3496 14.8509 16.3496Z" fill="white"/>
<path d="M29.6215 21.0653V28.354C29.6215 28.8255 29.2354 29.2116 28.7639 29.2116H26.1912C25.7197 29.2116 25.3337 28.8255 25.3337 28.354V22.3511C25.3337 21.1678 24.3736 20.2077 23.1903 20.2077C22.007 20.2077 21.0469 21.1678 21.0469 22.3511V28.354C21.0469 28.8255 20.6608 29.2116 20.1893 29.2116H17.6167C17.1451 29.2116 16.7591 28.8255 16.7591 28.354V17.2058C16.7591 16.7343 17.1451 16.3482 17.6167 16.3482H20.1893C20.6608 16.3482 21.0469 16.7343 21.0469 17.2058V17.7547C21.9044 16.6438 23.324 15.9199 24.9054 15.9199C27.272 15.9199 29.6215 17.635 29.6215 21.0653Z" fill="white"/>
</g>
<defs>
<clipPath id="clip0_1_598">
<rect width="39.9474" height="39.9474" fill="white"/>
</clipPath>
</defs>
</svg>
