<svg width="41" height="40" viewBox="0 0 41 40" fill="none" xmlns="http://www.w3.org/2000/svg">
<g clip-path="url(#clip0_1_581)">
<path d="M40.6247 19.8005C40.6247 30.7362 31.5306 39.601 20.3119 39.601C9.09418 39.6 0 30.7352 0 19.8005C0 8.86478 9.09418 0 20.3129 0C31.5316 0 40.6258 8.86478 40.6258 19.8005H40.6247Z" fill="#BA771B"/>
<path d="M20.2393 7.1119C13.9618 7.31023 8.77622 12.2663 8.46234 18.3815C8.34886 20.586 8.84779 22.6699 9.81804 24.4787L8.45519 30.4284C8.39793 30.6975 8.64229 30.9357 8.91833 30.8799L15.022 29.5514H15.0261C16.8695 30.4902 18.9848 30.9765 21.23 30.8749C27.4932 30.5919 32.5939 25.576 32.8362 19.4688C33.1102 12.5524 27.3265 6.88767 20.2403 7.1119H20.2393ZM20.6452 28.4282C18.8703 28.4282 17.2079 27.9608 15.7786 27.1446C15.6436 27.0709 15.5138 26.9931 15.387 26.9104L11.4876 27.923L12.5264 24.1219C11.5418 22.6459 10.9703 20.8869 10.9703 18.9964C10.9703 13.7971 15.3113 9.56554 20.6452 9.56554C25.979 9.56554 30.3201 13.7971 30.3201 18.9964C30.3201 24.1957 25.979 28.4272 20.6452 28.4272V28.4282Z" fill="white"/>
<path d="M26.3828 23.1482C26.2142 23.3953 26.0373 23.6255 25.7541 23.9006C25.1345 24.5045 24.2737 24.8095 23.4005 24.7228C21.8363 24.5663 19.6136 23.7242 17.7027 21.8655C15.7919 20.0029 14.928 17.8363 14.7715 16.3115C14.6826 15.4604 14.9954 14.6222 15.615 14.0173C15.8972 13.7422 16.1334 13.5688 16.3869 13.4004C16.8552 13.0924 17.4921 13.2977 17.669 13.816L18.31 15.6906C18.4869 16.2048 18.4072 16.5297 18.1792 16.747L17.669 17.2493C17.4154 17.4964 17.3735 17.8781 17.5678 18.1741C17.85 18.6056 18.3816 19.2963 19.36 20.25C20.3385 21.2038 21.047 21.722 21.4897 21.9971C21.7933 22.1864 22.1859 22.1456 22.4385 21.8984L22.9537 21.4011C23.1776 21.1789 23.5109 21.1011 24.0375 21.2735L25.9606 21.8984C26.4922 22.0708 26.7029 22.6917 26.3828 23.1482Z" fill="white"/>
</g>
<defs>
<clipPath id="clip0_1_581">
<rect width="40.6248" height="39.6" fill="white"/>
</clipPath>
</defs>
</svg>
