<svg width="41" height="40" viewBox="0 0 41 40" fill="none" xmlns="http://www.w3.org/2000/svg">
<g clip-path="url(#clip0_1_590)">
<path d="M40.6248 19.8005C40.6248 30.7362 31.5306 39.601 20.3119 39.601C9.09418 39.6 0 30.7352 0 19.8005C0 8.86478 9.09418 0 20.3129 0C31.5316 0 40.6258 8.86478 40.6258 19.8005H40.6248Z" fill="#BA771B"/>
<path d="M26.3307 18.2642L25.9923 20.9132C25.935 21.3557 25.5506 21.6885 25.0946 21.6885H20.6932V32.7638C20.229 32.8047 19.7587 32.8256 19.2833 32.8256C18.22 32.8256 17.1823 32.7219 16.1793 32.5246V21.6885H12.7942C12.4834 21.6885 12.2298 21.4404 12.2298 21.1364V17.8217C12.2298 17.5178 12.4834 17.2696 12.7942 17.2696H16.1793V12.2986C16.1793 9.24796 18.7057 6.77539 21.8229 6.77539H25.7724C26.0833 6.77539 26.3368 7.02354 26.3368 7.32751V10.6422C26.3368 10.9462 26.0833 11.1943 25.7724 11.1943H22.9506C21.7044 11.1943 20.6942 12.183 20.6942 13.4038V17.2706H25.434C25.978 17.2706 26.3982 17.737 26.3317 18.2652L26.3307 18.2642Z" fill="white"/>
</g>
<defs>
<clipPath id="clip0_1_590">
<rect width="40.6248" height="39.6" fill="white"/>
</clipPath>
</defs>
</svg>
