<svg width="40" height="40" viewBox="0 0 40 40" fill="none" xmlns="http://www.w3.org/2000/svg">
<g clip-path="url(#clip0_1_604)">
<path d="M39.9474 19.9742C39.9474 31.0058 31.0048 39.9484 19.9732 39.9484C8.94254 39.9474 0 31.0048 0 19.9742C0 8.94254 8.94254 0 19.9742 0C31.0058 0 39.9484 8.94254 39.9484 19.9742H39.9474Z" fill="#BA771B"/>
<path d="M23.9322 25.1196V15.223C23.9322 15.223 25.0482 17.0829 29.0816 17.1965C29.2967 17.2025 29.4747 17.0256 29.4747 16.8104V14.0135C29.4747 13.8054 29.3088 13.6406 29.1007 13.6285C25.9721 13.4516 24.4862 11.0518 24.3404 8.8511C24.3273 8.64701 24.1484 8.49219 23.9443 8.49219H20.7543C20.5422 8.49219 20.3693 8.6641 20.3693 8.87723V24.6099C20.3693 26.319 19.0633 27.8059 17.3563 27.8863C15.4049 27.9788 13.8185 26.3039 14.0597 24.3244C14.2306 22.9259 15.3526 21.7808 16.748 21.5868C17.0255 21.5486 17.2959 21.5456 17.5583 21.5747C17.7906 21.6009 17.9947 21.428 17.9947 21.1947V18.3908C17.9947 18.1918 17.8428 18.0188 17.6438 18.0068C17.2437 17.9806 16.8335 17.9897 16.4173 18.0369C13.3399 18.3858 10.8567 20.876 10.5159 23.9544C10.0665 28.015 13.2333 31.4522 17.2034 31.4522C20.9202 31.4522 23.9332 28.4392 23.9332 24.7225" fill="white"/>
</g>
<defs>
<clipPath id="clip0_1_604">
<rect width="39.9474" height="39.9474" fill="white"/>
</clipPath>
</defs>
</svg>
