<svg width="40" height="40" viewBox="0 0 40 40" fill="none" xmlns="http://www.w3.org/2000/svg">
<g clip-path="url(#clip0_1_595)">
<path d="M39.9474 19.9742C39.9474 31.0058 31.0048 39.9484 19.9732 39.9484C8.94254 39.9474 0 31.0048 0 19.9742C0 8.94254 8.94254 0 19.9742 0C31.0058 0 39.9484 8.94254 39.9484 19.9742H39.9474Z" fill="#BA771B"/>
<path d="M19.9742 6.65234C12.6161 6.65234 6.65337 12.614 6.65337 19.9732C6.65337 27.3323 12.6151 33.294 19.9742 33.294C27.3333 33.294 33.295 27.3323 33.295 19.9732C33.295 12.614 27.3333 6.65234 19.9742 6.65234ZM31.4522 19.7158C29.1419 19.0543 26.2666 18.6642 23.2757 19.3257C22.959 18.6139 22.6323 17.9293 22.3016 17.2728C25.3196 15.9679 27.5102 14.2417 28.9529 12.8262C30.473 14.7273 31.3969 17.1119 31.4512 19.7158H31.4522ZM19.9742 8.49011C22.946 8.49011 25.6564 9.62012 27.6952 11.48C26.3631 12.789 24.3012 14.4287 21.444 15.6411C19.7128 12.5135 17.9575 10.166 16.933 8.90331C17.9022 8.63187 18.9216 8.49011 19.9742 8.49011ZM15.1003 9.5779C15.9086 10.542 17.7916 12.9448 19.6756 16.3026C15.4542 17.6719 10.9572 17.7906 8.71131 17.7453C9.42309 14.121 11.844 11.108 15.1003 9.5789V9.5779ZM8.49114 19.9732C8.49114 19.8445 8.49114 19.7118 8.50018 19.5831C8.81285 19.5921 9.17075 19.5972 9.56585 19.5972C12.1747 19.5972 16.4605 19.3398 20.5533 17.9484C20.8659 18.5546 21.1685 19.189 21.4631 19.8455C15.6753 21.8069 12.598 25.7298 11.4036 27.6077C9.594 25.578 8.49114 22.9047 8.49114 19.9742V19.9732ZM19.9742 31.4562C17.2457 31.4562 14.7383 30.5011 12.7679 28.9067V28.9016C13.6455 27.4409 16.4927 23.4265 22.1839 21.5345C23.2677 24.2579 24.1363 27.3031 24.4761 30.5323C23.0938 31.1295 21.5727 31.4552 19.9752 31.4552L19.9742 31.4562ZM26.2204 29.6054C25.8253 26.532 25.0029 23.6527 23.9885 21.0529C26.6668 20.5382 29.2756 20.9745 31.3376 21.6129C30.8601 24.9567 28.9358 27.837 26.2204 29.6054Z" fill="white"/>
</g>
<defs>
<clipPath id="clip0_1_595">
<rect width="39.9474" height="39.9474" fill="white"/>
</clipPath>
</defs>
</svg>
